<?xml version="1.0" standalone="no"?>
<!DOCTYPE svg PUBLIC "-//W3C//DTD SVG 20010904//EN"
 "http://www.w3.org/TR/2001/REC-SVG-20010904/DTD/svg10.dtd">
<svg version="1.0" xmlns="http://www.w3.org/2000/svg"
 width="105.000000pt" height="105.000000pt" viewBox="0 0 105.000000 105.000000"
 preserveAspectRatio="xMidYMid meet">
<metadata>
Created by potrace 1.14, written by Peter Selinger 2001-2017
</metadata>
<g transform="translate(0.000000,105.000000) scale(0.100000,-0.100000)"
fill="#000000" stroke="none">
<path d="M295 808 c-129 -28 -185 -150 -140 -308 9 -30 16 -61 17 -67 1 -7 5
-13 10 -13 4 0 8 -6 8 -13 0 -7 9 -23 20 -35 11 -12 20 -28 20 -36 0 -10 6
-13 17 -9 12 5 15 2 10 -10 -4 -11 -2 -14 7 -11 7 3 20 -2 29 -10 8 -8 17 -12
21 -9 3 4 6 2 6 -4 0 -5 10 -9 23 -8 12 2 33 -4 46 -12 13 -8 20 -10 17 -4 -5
7 2 11 18 11 14 0 26 -5 26 -11 0 -6 -7 -8 -17 -4 -14 5 -15 3 -6 -6 13 -13
33 -4 33 17 0 17 12 18 29 2 10 -9 12 -10 7 -1 -9 16 123 15 143 -1 11 -8 13
-8 8 1 -4 6 -3 14 3 18 6 4 8 10 6 14 -3 4 0 13 6 21 8 12 9 12 4 -2 -3 -11 0
-18 8 -18 8 0 16 -5 18 -11 4 -11 151 -14 168 -4 4 3 6 21 4 41 -3 32 -2 34
14 22 15 -12 16 -11 3 5 -17 22 -24 190 -8 180 6 -4 7 -1 2 8 -14 21 -15 60
-3 53 7 -5 8 -2 3 7 -5 7 -10 47 -11 89 -3 104 -3 102 -14 95 -5 -3 -10 0 -10
7 0 10 -20 13 -80 13 -43 -1 -82 -4 -85 -7 -4 -3 -7 -45 -7 -92 0 -51 -4 -86
-10 -86 -6 0 -8 9 -5 20 3 11 1 23 -4 26 -5 3 -9 10 -9 15 0 6 6 7 13 3 6 -4
-12 16 -41 44 -30 29 -58 52 -64 52 -5 0 -7 4 -4 8 3 5 0 9 -7 9 -7 0 -25 4
-42 8 -45 11 -155 12 -200 3z m145 -179 c0 -5 5 -7 10 -4 13 8 28 -32 24 -67
-10 -85 -61 -135 -105 -104 -13 9 -19 16 -14 16 6 0 4 4 -4 9 -8 5 -16 33 -19
62 -5 49 -3 54 24 76 30 23 84 32 84 12z m227 -114 c-1 -31 -7 -57 -14 -59 -8
-3 -9 4 -3 25 10 35 10 33 10 64 0 14 2 25 5 25 2 0 3 -25 2 -55z"/>
<path d="M350 600 c0 -5 5 -10 11 -10 5 0 7 5 4 10 -3 6 -8 10 -11 10 -2 0 -4
-4 -4 -10z"/>
<path d="M876 683 c-6 -14 -5 -15 5 -6 7 7 10 15 7 18 -3 3 -9 -2 -12 -12z"/>
<path d="M370 250 c0 -5 5 -10 11 -10 5 0 7 5 4 10 -3 6 -8 10 -11 10 -2 0 -4
-4 -4 -10z"/>
<path d="M756 248 c3 -5 10 -6 15 -3 13 9 11 12 -6 12 -8 0 -12 -4 -9 -9z"/>
</g>
</svg>
