<?xml version="1.0" standalone="no"?>
<!DOCTYPE svg PUBLIC "-//W3C//DTD SVG 20010904//EN"
 "http://www.w3.org/TR/2001/REC-SVG-20010904/DTD/svg10.dtd">
<svg version="1.0" xmlns="http://www.w3.org/2000/svg"
 width="145.000000pt" height="145.000000pt" viewBox="0 0 145.000000 145.000000"
 preserveAspectRatio="xMidYMid meet">
<metadata>
Created by potrace 1.14, written by Peter Selinger 2001-2017
</metadata>
<g transform="translate(0.000000,145.000000) scale(0.100000,-0.100000)"
fill="#000000" stroke="none">
<path d="M464 1255 c-168 -36 -299 -147 -354 -302 -32 -91 -43 -217 -25 -283
4 -14 7 -33 7 -43 -1 -9 4 -15 9 -11 6 3 10 0 8 -7 -4 -35 2 -60 13 -53 8 5 9
2 5 -10 -4 -10 -1 -19 8 -22 8 -4 12 -10 9 -15 -7 -12 15 -51 25 -44 11 6 33
-19 25 -28 -9 -9 29 -52 46 -52 8 0 16 -10 18 -23 2 -12 8 -20 13 -16 5 3 7
11 3 17 -3 7 2 3 10 -7 9 -11 16 -23 16 -28 0 -4 15 -15 33 -23 28 -14 30 -14
13 0 -11 8 -23 15 -28 15 -4 0 -8 4 -8 9 0 5 15 1 34 -8 22 -10 31 -21 28 -31
-3 -8 -1 -12 3 -7 5 4 19 0 31 -8 13 -8 36 -16 51 -17 16 -1 33 -4 38 -7 17
-9 136 -7 142 3 4 5 1 6 -7 1 -8 -5 -11 -4 -7 2 3 5 21 9 39 8 18 -1 43 3 56
7 13 5 31 4 42 -2 13 -7 21 -7 26 2 4 6 3 8 -4 4 -6 -3 -13 -2 -17 3 -3 6 3 8
14 6 30 -6 62 -29 57 -42 -3 -6 7 -19 20 -28 28 -18 60 -13 48 7 -6 10 -4 10
8 0 14 -11 18 -10 27 5 6 10 11 14 11 9 0 -14 40 25 40 39 0 15 27 28 40 20
22 -14 37 66 17 87 -22 22 -53 73 -39 64 8 -5 16 2 23 23 6 17 15 29 19 26 4
-3 11 2 14 11 4 10 2 13 -7 9 -6 -4 -3 1 7 9 18 14 24 31 27 76 1 8 6 20 11
27 9 11 20 100 19 153 -4 188 -102 350 -261 430 -110 56 -262 73 -396 45z
m192 -228 c5 -4 1 -5 -9 -1 -9 3 -17 2 -17 -4 0 -10 17 -11 35 -1 6 3 16 4 23
3 6 -1 17 -2 22 -3 6 0 10 -6 10 -12 0 -6 -5 -7 -12 -2 -19 11 -39 13 -32 2 3
-5 9 -7 14 -4 5 3 11 1 15 -5 4 -6 10 -8 15 -5 5 3 12 1 15 -5 4 -7 11 -8 18
-1 8 6 22 1 42 -16 17 -14 23 -22 15 -18 -8 5 -23 15 -32 23 -10 8 -18 12 -18
8 0 -11 43 -45 56 -46 6 0 18 -8 25 -17 13 -17 13 -17 -5 -3 -19 15 -19 14 -2
-12 17 -26 35 -41 20 -16 -4 7 -3 8 5 4 9 -6 9 -11 1 -21 -8 -10 -8 -15 1 -21
8 -5 9 -3 4 6 -5 8 -4 11 2 7 11 -7 14 -28 15 -122 1 -58 -29 -145 -50 -145
-4 0 -26 18 -47 41 -22 22 -52 49 -67 60 l-26 19 -81 -61 c-45 -33 -81 -68
-81 -77 0 -9 14 -31 32 -49 l32 -33 -25 -1 c-99 -5 -197 58 -237 150 -16 39
-24 181 -9 181 4 0 5 5 2 10 -3 6 -1 10 5 10 6 0 8 5 5 11 -4 6 1 17 11 25 11
9 12 13 4 9 -8 -4 -4 2 9 13 13 10 21 24 17 30 -3 5 1 13 10 16 10 4 13 2 8
-6 -4 -7 -3 -8 4 -4 7 4 12 14 12 21 0 8 12 22 27 32 29 19 56 26 47 12 -3 -5
-10 -6 -16 -3 -7 4 -8 2 -4 -5 8 -13 25 -5 42 19 9 11 29 15 77 15 36 0 69 -4
73 -8z m88 -23 c3 -8 2 -12 -4 -9 -6 3 -10 10 -10 16 0 14 7 11 14 -7z m-523
-591 c13 -16 12 -17 -3 -4 -10 7 -18 15 -18 17 0 8 8 3 21 -13z m829 -99 c0
-8 -19 -13 -24 -6 -3 5 1 9 9 9 8 0 15 -2 15 -3z m-617 -29 c19 -8 38 -11 42
-7 5 4 5 1 1 -5 -6 -10 -15 -10 -44 2 -35 15 -51 25 -40 25 3 0 21 -7 41 -15z
m171 -26 c3 -3 -19 -5 -49 -4 -29 0 -57 3 -60 7 -4 3 19 5 49 4 30 -1 58 -4
60 -7z m366 -4 c-7 -9 -15 -13 -19 -10 -3 3 1 10 9 15 21 14 24 12 10 -5z
m-100 -26 c0 -5 5 -7 10 -4 6 3 10 1 10 -4 0 -15 -11 -13 -34 4 -17 13 -18 15
-3 15 9 0 17 -5 17 -11z"/>
<path d="M515 1020 c-2 -3 10 -6 26 -6 16 -1 29 1 29 5 0 8 -50 9 -55 1z"/>
<path d="M434 985 c-18 -14 -18 -14 4 -8 12 3 22 9 22 14 0 12 -3 11 -26 -6z"/>
<path d="M530 543 c0 -12 28 -38 34 -32 2 2 -5 13 -15 23 -11 11 -19 15 -19 9z"/>
<path d="M1155 1257 c-18 -14 -19 -28 -20 -273 0 -143 -4 -264 -8 -271 -4 -6
-4 -14 0 -16 5 -3 8 -97 8 -209 -1 -171 2 -205 15 -216 10 -9 10 -11 1 -6 -10
5 -12 3 -7 -5 5 -7 12 -9 19 -3 12 8 157 9 187 1 13 -3 15 56 17 486 2 301 -1
496 -7 505 -14 22 -177 27 -205 7z"/>
<path d="M170 450 c0 -5 5 -10 11 -10 5 0 7 5 4 10 -3 6 -8 10 -11 10 -2 0 -4
-4 -4 -10z"/>
<path d="M715 261 c-11 -4 -30 -6 -42 -5 -13 1 -23 -2 -23 -7 0 -4 17 -6 38
-3 20 3 43 6 50 7 6 0 12 4 12 9 0 9 -8 9 -35 -1z"/>
<path d="M1190 249 c0 -3 23 -5 50 -5 28 1 50 4 50 7 0 3 -22 5 -50 5 -27 -1
-50 -4 -50 -7z"/>
</g>
</svg>
